<?xml version="1.0" encoding="utf-8"?>
<!-- Generator: Adobe Illustrator 25.0.0, SVG Export Plug-In . SVG Version: 6.00 Build 0)  -->
<svg version="1.1" id="Calque_1" xmlns="http://www.w3.org/2000/svg" xmlns:xlink="http://www.w3.org/1999/xlink" x="0px" y="0px"
	 viewBox="0 0 1125 2436" style="enable-background:new 0 0 1125 2436;" xml:space="preserve">
<style type="text/css">
	.st0{fill:#0B0B45;}
	.st1{fill:#00B7C0;}
</style>
<rect x="-187.5" y="-52.5" class="st0" width="1508" height="2600"/>
<path class="st1" d="M1168,2078c46.04,2.38,101.15,99.94,153,470c-407.33,0-1101.67,0-1509,0c-6.42-358.3-4.16-447.85,0-448
	c4.33-0.16-11.05,97.38,38,132c90.81,64.1,273.58-178.45,477-122c88.94,24.68,73.84,76.55,160,94
	c178.98,36.24,321.43-171.94,426-114c51.19,28.36,44.04,93.2,91,101C1070.92,2202.11,1114.25,2075.22,1168,2078z"/>
</svg>
