<?xml version="1.0" encoding="utf-8"?>
<!-- Generator: Adobe Illustrator 25.0.0, SVG Export Plug-In . SVG Version: 6.00 Build 0)  -->
<svg version="1.1" id="Calque_1" xmlns="http://www.w3.org/2000/svg" xmlns:xlink="http://www.w3.org/1999/xlink" x="0px" y="0px"
	 viewBox="0 0 1125 2436" style="enable-background:new 0 0 1125 2436;" xml:space="preserve">
<style type="text/css">
	.st0{fill:#0B0B45;}
	.st1{fill:#00609E;}
</style>
<rect x="-187.5" y="-52.5" class="st0" width="1508" height="2600"/>
<path class="st1" d="M1168,2078c46.04,2.38,101.15,99.94,153,470c-407.33,0-1101.67,0-1509,0c-6.86-327.97-5.59-447.77,0-448
	c4.94-0.21-10.89,93.99,38,132c107.94,83.92,391.62-214.79,553-117c50.79,30.78,33.27,66.77,84,89
	c135.76,59.48,314.12-175.08,426-114c51.09,27.89,43.88,93.18,91,101C1070.92,2202.11,1114.25,2075.22,1168,2078z"/>
</svg>
