<?xml version="1.0" encoding="utf-8"?>
<!-- Generator: Adobe Illustrator 25.0.0, SVG Export Plug-In . SVG Version: 6.00 Build 0)  -->
<svg preserveAspectRatio="none" version="1.1" id="Calque_1" xmlns="http://www.w3.org/2000/svg" xmlns:xlink="http://www.w3.org/1999/xlink" x="0px" y="0px"
	 viewBox="0 0 1125 2436" style="enable-background:new 0 0 1125 2436;" xml:space="preserve">
<style type="text/css">
	.st0{fill:#0B0B45;}
	.st1{fill:#002455;}
	.st2{fill:#FFFFFF;}
</style>
<rect x="-411.5" y="-44.5" class="st0" width="2020" height="2600"/>
<path class="st1" d="M-235,1924c102.83-242.47,179.8-299.75,235-296c94.06,6.39,110.34,189.03,225,208
	c134.06,22.18,198.02-213.23,364-216c169.8-2.83,255.23,241.01,372,208c97.97-27.7,92.72-214.86,164-224
	c42.44-5.44,108.19,52.7,212,320v980H-263L-235,1924z"/>
<path class="st2" d="M-235,2502c102.83-242.47,179.8-299.75,235-296c94.06,6.39,110.34,189.03,225,208
	c134.06,22.18,198.02-213.23,364-216c169.8-2.83,255.23,241.01,372,208c97.97-27.7,92.72-214.86,164-224
	c42.44-5.44,108.19,52.7,212,320v980H-263L-235,2502z"/>
</svg>
